<svg width="0" height="0" class="hidden">
  <symbol xmlns="http://www.w3.org/2000/svg" viewBox="0 0 128 128" id="character">
    <path d="M 49.949219 1.9628906 C 49.374219 1.9753906 48.800781 2.15 48.300781 2.5 C 48.100781 2.7 45.899219 4.2992187 44.199219 7.1992188 C 39.999219 14.699219 39.000391 28.000391 49.900391 34.400391 C 73.200391 48.200391 65.100781 75.099219 55.800781 106.19922 C 54.600781 110.09922 53.400781 114 52.300781 118 L 51.599609 118 C 48.299609 118 45.599609 120.7 45.599609 124 C 45.599609 125.7 46.899609 127 48.599609 127 L 64.699219 127 C 65.899219 127 66.699609 126.00078 66.599609 124.80078 L 66.599609 124 C 66.499609 117.4 71.9 112 78.5 112 L 79 112 C 78.6 111.3 78.399609 110.60039 78.099609 109.90039 C 77.699609 108.40039 78.299219 106.79961 79.699219 106.09961 C 81.399219 105.29961 83.400391 106.3 83.900391 108 C 84.400391 109.8 86.000391 111.90039 88.900391 111.90039 C 90.500391 111.90039 91.8 113.09922 92 114.69922 C 92.1 116.49922 90.7 117.90039 89 117.90039 L 78.5 117.90039 C 74.3 117.90039 71.199609 122.2 73.099609 126.5 C 73.599609 127.6 74.5 127.50039 75.5 126.90039 L 75.599609 126.90039 L 104 126.90039 L 112.19922 126.90039 C 117.69922 126.90039 122.90078 123.90078 125.30078 118.80078 C 127.60078 113.80078 126.90039 108.10039 123.40039 103.90039 C 122.00039 102.30039 119.30078 102.40078 118.30078 104.80078 C 117.90078 105.80078 118.10078 106.90078 118.80078 107.80078 C 120.90078 110.30078 121.30078 113.6 119.80078 116.5 C 118.40078 119.2 115.5 120.90039 112.5 120.90039 L 110 120.90039 C 115.1 112.20039 114.60078 100.89961 108.30078 92.599609 L 98.599609 79.800781 C 97.999609 79.100781 96.999219 78.799219 96.199219 79.199219 C 92.499219 80.899219 88.299609 81.299219 84.099609 80.199219 C 76.099609 77.999219 70.699219 70.499219 70.699219 62.199219 L 70.699219 34 C 70.699219 32.5 71.699609 31.200391 73.099609 30.900391 C 74.999609 30.500391 76.699219 32.000781 76.699219 33.800781 L 76.699219 62.300781 C 76.699219 68.300781 81.000391 73.699219 86.900391 74.699219 C 89.400391 75.099219 91.800391 74.699219 93.900391 73.699219 C 96.100391 72.699219 98.000781 70.899219 99.300781 68.699219 C 100.70078 66.199219 101.09961 63.200781 100.59961 60.300781 C 99.699609 55.000781 97.400391 41.500391 95.400391 29.900391 C 93.600391 19.000391 84.000781 10.900391 72.800781 10.900391 L 65.5 10.900391 L 51.599609 2.4003906 C 51.099609 2.1003906 50.524219 1.9503906 49.949219 1.9628906 z M 22.900391 66.511719 C 21.925391 66.599219 20.949219 67.050781 20.199219 67.800781 C 19.899219 68.100781 19.4 68.100781 19 67.800781 C 17.5 66.300781 15.1 66.100391 13.5 67.400391 C 11.7 68.900391 11.599219 71.700781 13.199219 73.300781 L 14 74 L 17.5 77.5 C 18.7 78.7 20.599219 78.7 21.699219 77.5 L 25.199219 74 L 25.900391 73.300781 C 27.600391 71.600781 27.499609 68.900391 25.599609 67.400391 C 24.849609 66.700391 23.875391 66.424219 22.900391 66.511719 z M 4 121 C 2.3 121 1 122.3 1 124 C 1 125.7 2.3 127 4 127 L 35.5 127 C 37.2 127 38.5 125.7 38.5 124 C 38.5 122.3 37.2 121 35.5 121 L 4 121 z"></path>
  </symbol>
  <symbol xmlns="http://www.w3.org/2000/svg" viewBox="0 0 30 30" id="energy">
    <path d="M 3 7 A 1.0001 1.0001 0 1 0 3 9 L 6 9 A 1.0001 1.0001 0 1 0 6 7 L 3 7 z M 23.632812 7 C 22.533812 7 22.047578 7.3374688 21.517578 7.7304688 C 21.518578 7.7304688 21 8 19 8 C 16.971557 8 15.497223 9.1289114 15.449219 9.1660156 A 1 1 0 0 0 15.435547 9.1738281 C 15.435494 9.1738692 15.431641 9.1777344 15.431641 9.1777344 A 1 1 0 0 0 16 11 C 19.172 11 20 10 20 10 C 16 14 16.246 12 12 12 C 9.9000567 12 8.4329759 12.474858 7.4003906 13.146484 L 6.2246094 13.539062 C 5.0149808 13.942272 3.9748124 14.736024 3.2675781 15.796875 L 2.1679688 17.445312 A 1.0001 1.0001 0 1 0 3.8320312 18.554688 L 4.9316406 16.90625 C 4.9779903 16.836725 5.035325 16.776852 5.0859375 16.710938 C 5.0576363 16.878734 5.0339737 17.022587 5.0234375 17.152344 A 1.50015 1.50015 0 0 0 5.4472656 18.568359 L 7.9746094 21.056641 C 7.9504613 21.182783 7.9040397 21.313136 7.8378906 21.447266 L 6.6503906 22.263672 A 1.50015 1.50015 0 0 0 6.9082031 24.878906 L 10.408203 26.378906 A 1.5005351 1.5005351 0 1 0 11.591797 23.621094 L 10.828125 23.292969 C 12.691379 22.404262 13 20.956696 13 20 C 13.716074 20 14.288709 20.053293 14.779297 20.126953 A 1.50015 1.50015 0 0 0 14.560547 21.419922 L 15.261719 23.828125 L 14.630859 24.277344 A 1.50015 1.50015 0 1 0 16.369141 26.722656 L 17.869141 25.654297 A 1.50015 1.50015 0 0 0 18.439453 24.011719 L 17.673828 21.384766 L 18.341797 20.646484 C 19.896106 19.828494 21 17.726252 21 16 C 21 12.428 24.271422 13 25.732422 13 L 26.5 13 A 1.5 1.5 0 0 0 27.806641 12.230469 L 27.810547 12.228516 L 27.833984 12.185547 L 27.835938 12.179688 A 1.5 1.5 0 0 0 27.837891 12.175781 L 28.867188 10.175781 A 0.75 0.75 0 0 0 28.447266 9.0273438 L 28.429688 9.0214844 A 0.75 0.75 0 0 0 28.425781 9.0214844 L 26 8.2851562 C 26 8.2851562 25.509812 7 23.632812 7 z M 1 11 A 1.0001 1.0001 0 1 0 1 13 L 4 13 A 1.0001 1.0001 0 1 0 4 11 L 1 11 z"></path>
  </symbol>
  <symbol xmlns="http://www.w3.org/2000/svg" viewBox="0 0 30 30" id="facebook">
    <path fill="#8b5a2b" d="M15,3C8.373,3,3,8.373,3,15c0,6.016,4.432,10.984,10.206,11.852V18.18h-2.969v-3.154h2.969v-2.099c0-3.475,1.693-5,4.581-5 c1.383,0,2.115,0.103,2.461,0.149v2.753h-1.97c-1.226,0-1.654,1.163-1.654,2.473v1.724h3.593L19.73,18.18h-3.106v8.697 C22.481,26.083,27,21.075,27,15C27,8.373,21.627,3,15,3z"></path>
  </symbol>
  <symbol xmlns="http://www.w3.org/2000/svg" viewBox="0 0 24 20" id="icon-twitter">
    <path d="M24 2.557a9.83 9.83 0 01-2.828.775A4.932 4.932 0 0023.337.608a9.864 9.864 0 01-3.127 1.195A4.916 4.916 0 0016.616.248c-3.179 0-5.515 2.966-4.797 6.045A13.978 13.978 0 011.671 1.149a4.93 4.93 0 001.523 6.574 4.903 4.903 0 01-2.229-.616c-.054 2.281 1.581 4.415 3.949 4.89a4.935 4.935 0 01-2.224.084 4.928 4.928 0 004.6 3.419A9.9 9.9 0 010 17.54a13.94 13.94 0 007.548 2.212c9.142 0 14.307-7.721 13.995-14.646A10.025 10.025 0 0024 2.557z" fill="#FFF" fill-rule="nonzero"></path>
  </symbol>
  <symbol xmlns="http://www.w3.org/2000/svg" fill="#8b5a2b" viewBox="0 0 30 30" id="instagram">
    <path d="M 9.9980469 3 C 6.1390469 3 3 6.1419531 3 10.001953 L 3 20.001953 C 3 23.860953 6.1419531 27 10.001953 27 L 20.001953 27 C 23.860953 27 27 23.858047 27 19.998047 L 27 9.9980469 C 27 6.1390469 23.858047 3 19.998047 3 L 9.9980469 3 z M 22 7 C 22.552 7 23 7.448 23 8 C 23 8.552 22.552 9 22 9 C 21.448 9 21 8.552 21 8 C 21 7.448 21.448 7 22 7 z M 15 9 C 18.309 9 21 11.691 21 15 C 21 18.309 18.309 21 15 21 C 11.691 21 9 18.309 9 15 C 9 11.691 11.691 9 15 9 z M 15 11 A 4 4 0 0 0 11 15 A 4 4 0 0 0 15 19 A 4 4 0 0 0 19 15 A 4 4 0 0 0 15 11 z"></path>
  </symbol>
  <symbol xmlns="http://www.w3.org/2000/svg" xmlns:xlink="http://www.w3.org/1999/xlink" zoomAndPan="magnify" preserveAspectRatio="xMidYMid meet" version="1.0" viewBox="0 0 75 30.000001" id="logo">
    <defs>
      <g></g>
      <clipPath id="6e37781436">
        <path d="M 68 12 L 73.789062 12 L 73.789062 19 L 68 19 Z M 68 12 " clip-rule="nonzero"></path>
      </clipPath>
      <clipPath id="3a7d0a0faf">
        <path d="M 9.371094 11.722656 L 16.628906 11.722656 L 16.628906 18.980469 L 9.371094 18.980469 Z M 9.371094 11.722656 " clip-rule="nonzero"></path>
      </clipPath>
    </defs>
    <g fill="#ffffff" fill-opacity="1">
      <g transform="translate(1.522484, 18.467492)">
        <g>
          <path d="M 7.015625 -1.109375 C 7.117188 -1.046875 7.195312 -0.960938 7.25 -0.859375 C 7.300781 -0.765625 7.328125 -0.664062 7.328125 -0.5625 C 7.328125 -0.425781 7.285156 -0.300781 7.203125 -0.1875 C 7.085938 -0.0507812 6.914062 0.015625 6.6875 0.015625 C 6.5 0.015625 6.332031 -0.0234375 6.1875 -0.109375 C 5.644531 -0.421875 5.375 -1.046875 5.375 -1.984375 C 5.375 -2.253906 5.285156 -2.46875 5.109375 -2.625 C 4.929688 -2.789062 4.679688 -2.875 4.359375 -2.875 L 2.25 -2.875 L 2.25 -0.6875 C 2.25 -0.476562 2.191406 -0.3125 2.078125 -0.1875 C 1.972656 -0.0625 1.832031 0 1.65625 0 C 1.4375 0 1.242188 -0.0625 1.078125 -0.1875 C 0.921875 -0.320312 0.84375 -0.488281 0.84375 -0.6875 L 0.84375 -7.1875 C 0.84375 -7.382812 0.90625 -7.546875 1.03125 -7.671875 C 1.164062 -7.804688 1.332031 -7.875 1.53125 -7.875 L 4.765625 -7.875 C 5.160156 -7.875 5.53125 -7.769531 5.875 -7.5625 C 6.21875 -7.351562 6.492188 -7.0625 6.703125 -6.6875 C 6.910156 -6.320312 7.015625 -5.910156 7.015625 -5.453125 C 7.015625 -5.078125 6.910156 -4.710938 6.703125 -4.359375 C 6.503906 -4.003906 6.242188 -3.722656 5.921875 -3.515625 C 6.390625 -3.179688 6.644531 -2.738281 6.6875 -2.1875 C 6.71875 -2.0625 6.734375 -1.941406 6.734375 -1.828125 C 6.753906 -1.597656 6.78125 -1.429688 6.8125 -1.328125 C 6.84375 -1.234375 6.910156 -1.160156 7.015625 -1.109375 Z M 4.71875 -4.03125 C 4.851562 -4.03125 4.984375 -4.09375 5.109375 -4.21875 C 5.234375 -4.34375 5.335938 -4.507812 5.421875 -4.71875 C 5.503906 -4.9375 5.546875 -5.171875 5.546875 -5.421875 C 5.546875 -5.628906 5.503906 -5.820312 5.421875 -6 C 5.335938 -6.175781 5.234375 -6.316406 5.109375 -6.421875 C 4.984375 -6.523438 4.851562 -6.578125 4.71875 -6.578125 L 2.25 -6.578125 L 2.25 -4.03125 Z M 4.71875 -4.03125 "></path>
        </g>
      </g>
    </g>
    <g fill="#ffffff" fill-opacity="1">
      <g transform="translate(9.631103, 18.467492)">
        <g></g>
      </g>
    </g>
    <g fill="#ffffff" fill-opacity="1">
      <g transform="translate(13.163682, 18.467492)">
        <g></g>
      </g>
    </g>
    <g fill="#ffffff" fill-opacity="1">
      <g transform="translate(16.685035, 18.467492)">
        <g>
          <path d="M 5.609375 -8.328125 C 5.796875 -8.328125 5.953125 -8.257812 6.078125 -8.125 C 6.210938 -8 6.28125 -7.835938 6.28125 -7.640625 L 6.28125 -0.6875 C 6.28125 -0.488281 6.210938 -0.320312 6.078125 -0.1875 C 5.953125 -0.0625 5.796875 0 5.609375 0 C 5.410156 0 5.25 -0.0625 5.125 -0.1875 C 5 -0.3125 4.929688 -0.472656 4.921875 -0.671875 C 4.734375 -0.453125 4.476562 -0.265625 4.15625 -0.109375 C 3.84375 0.0351562 3.507812 0.109375 3.15625 0.109375 C 2.644531 0.109375 2.175781 -0.0195312 1.75 -0.28125 C 1.332031 -0.550781 1 -0.921875 0.75 -1.390625 C 0.507812 -1.867188 0.390625 -2.40625 0.390625 -3 C 0.390625 -3.601562 0.507812 -4.140625 0.75 -4.609375 C 0.988281 -5.085938 1.316406 -5.457031 1.734375 -5.71875 C 2.148438 -5.988281 2.609375 -6.125 3.109375 -6.125 C 3.472656 -6.125 3.8125 -6.054688 4.125 -5.921875 C 4.4375 -5.796875 4.703125 -5.632812 4.921875 -5.4375 L 4.921875 -7.640625 C 4.921875 -7.835938 4.984375 -8 5.109375 -8.125 C 5.242188 -8.257812 5.410156 -8.328125 5.609375 -8.328125 Z M 3.328125 -1.125 C 3.816406 -1.125 4.210938 -1.300781 4.515625 -1.65625 C 4.828125 -2.007812 4.984375 -2.457031 4.984375 -3 C 4.984375 -3.539062 4.828125 -3.988281 4.515625 -4.34375 C 4.210938 -4.707031 3.816406 -4.890625 3.328125 -4.890625 C 2.847656 -4.890625 2.453125 -4.707031 2.140625 -4.34375 C 1.835938 -3.988281 1.6875 -3.539062 1.6875 -3 C 1.6875 -2.457031 1.835938 -2.007812 2.140625 -1.65625 C 2.441406 -1.300781 2.835938 -1.125 3.328125 -1.125 Z M 3.328125 -1.125 "></path>
        </g>
      </g>
    </g>
    <g fill="#ffffff" fill-opacity="1">
      <g transform="translate(24.076373, 18.467492)">
        <g>
          <path d="M 6.125 -3.15625 C 6.125 -2.96875 6.054688 -2.816406 5.921875 -2.703125 C 5.785156 -2.597656 5.625 -2.546875 5.4375 -2.546875 L 1.734375 -2.546875 C 1.828125 -2.097656 2.03125 -1.75 2.34375 -1.5 C 2.664062 -1.25 3.03125 -1.125 3.4375 -1.125 C 3.75 -1.125 3.988281 -1.148438 4.15625 -1.203125 C 4.332031 -1.265625 4.46875 -1.328125 4.5625 -1.390625 C 4.664062 -1.453125 4.738281 -1.492188 4.78125 -1.515625 C 4.914062 -1.585938 5.039062 -1.625 5.15625 -1.625 C 5.320312 -1.625 5.457031 -1.566406 5.5625 -1.453125 C 5.675781 -1.335938 5.734375 -1.207031 5.734375 -1.0625 C 5.734375 -0.851562 5.628906 -0.664062 5.421875 -0.5 C 5.210938 -0.332031 4.929688 -0.1875 4.578125 -0.0625 C 4.222656 0.0507812 3.867188 0.109375 3.515625 0.109375 C 2.878906 0.109375 2.328125 -0.0195312 1.859375 -0.28125 C 1.390625 -0.539062 1.023438 -0.898438 0.765625 -1.359375 C 0.515625 -1.828125 0.390625 -2.347656 0.390625 -2.921875 C 0.390625 -3.566406 0.523438 -4.132812 0.796875 -4.625 C 1.066406 -5.113281 1.421875 -5.484375 1.859375 -5.734375 C 2.304688 -5.992188 2.78125 -6.125 3.28125 -6.125 C 3.78125 -6.125 4.25 -5.988281 4.6875 -5.71875 C 5.125 -5.457031 5.472656 -5.097656 5.734375 -4.640625 C 5.992188 -4.179688 6.125 -3.6875 6.125 -3.15625 Z M 3.28125 -4.890625 C 2.414062 -4.890625 1.90625 -4.484375 1.75 -3.671875 L 4.6875 -3.671875 L 4.6875 -3.75 C 4.65625 -4.0625 4.5 -4.328125 4.21875 -4.546875 C 3.945312 -4.773438 3.632812 -4.890625 3.28125 -4.890625 Z M 3.28125 -4.890625 "></path>
        </g>
      </g>
    </g>
    <g fill="#ffffff" fill-opacity="1">
      <g transform="translate(30.983958, 18.467492)">
        <g>
          <path d="M 2.1875 -0.6875 C 2.1875 -0.488281 2.117188 -0.320312 1.984375 -0.1875 C 1.859375 -0.0625 1.695312 0 1.5 0 C 1.3125 0 1.15625 -0.0625 1.03125 -0.1875 C 0.90625 -0.320312 0.84375 -0.488281 0.84375 -0.6875 L 0.84375 -7.640625 C 0.84375 -7.835938 0.90625 -8 1.03125 -8.125 C 1.164062 -8.257812 1.332031 -8.328125 1.53125 -8.328125 C 1.71875 -8.328125 1.875 -8.257812 2 -8.125 C 2.125 -8 2.1875 -7.835938 2.1875 -7.640625 Z M 2.1875 -0.6875 "></path>
        </g>
      </g>
    </g>
    <g fill="#ffffff" fill-opacity="1">
      <g transform="translate(34.404027, 18.467492)">
        <g>
          <path d="M 0.5625 -7.328125 C 0.59375 -7.691406 0.785156 -7.875 1.140625 -7.875 L 1.5 -7.875 C 1.664062 -7.875 1.789062 -7.835938 1.875 -7.765625 C 1.957031 -7.691406 2 -7.59375 2 -7.46875 C 2 -7.394531 1.984375 -7.316406 1.953125 -7.234375 L 1.1875 -4.875 C 1.101562 -4.632812 0.941406 -4.515625 0.703125 -4.515625 C 0.585938 -4.515625 0.5 -4.550781 0.4375 -4.625 C 0.382812 -4.707031 0.363281 -4.820312 0.375 -4.96875 Z M 0.5625 -7.328125 "></path>
        </g>
      </g>
    </g>
    <g fill="#ffffff" fill-opacity="1">
      <g transform="translate(37.171593, 18.467492)">
        <g>
          <path d="M 0.375 -0.9375 C 0.3125 -1.019531 0.28125 -1.128906 0.28125 -1.265625 C 0.28125 -1.460938 0.378906 -1.628906 0.578125 -1.765625 C 0.679688 -1.835938 0.789062 -1.875 0.90625 -1.875 C 1.0625 -1.875 1.207031 -1.800781 1.34375 -1.65625 C 1.570312 -1.425781 1.804688 -1.253906 2.046875 -1.140625 C 2.296875 -1.023438 2.59375 -0.96875 2.9375 -0.96875 C 3.519531 -0.988281 3.8125 -1.207031 3.8125 -1.625 C 3.8125 -1.84375 3.710938 -2.007812 3.515625 -2.125 C 3.316406 -2.238281 3.007812 -2.351562 2.59375 -2.46875 C 2.15625 -2.582031 1.796875 -2.695312 1.515625 -2.8125 C 1.242188 -2.9375 1.007812 -3.117188 0.8125 -3.359375 C 0.613281 -3.609375 0.515625 -3.941406 0.515625 -4.359375 C 0.515625 -4.710938 0.617188 -5.019531 0.828125 -5.28125 C 1.035156 -5.550781 1.304688 -5.757812 1.640625 -5.90625 C 1.972656 -6.050781 2.328125 -6.125 2.703125 -6.125 C 3.085938 -6.125 3.46875 -6.050781 3.84375 -5.90625 C 4.226562 -5.769531 4.53125 -5.5625 4.75 -5.28125 C 4.84375 -5.164062 4.890625 -5.03125 4.890625 -4.875 C 4.890625 -4.707031 4.820312 -4.566406 4.6875 -4.453125 C 4.570312 -4.367188 4.445312 -4.328125 4.3125 -4.328125 C 4.15625 -4.328125 4.023438 -4.378906 3.921875 -4.484375 C 3.785156 -4.648438 3.609375 -4.78125 3.390625 -4.875 C 3.179688 -4.976562 2.941406 -5.03125 2.671875 -5.03125 C 2.097656 -5.03125 1.8125 -4.820312 1.8125 -4.40625 C 1.8125 -4.238281 1.863281 -4.101562 1.96875 -4 C 2.070312 -3.90625 2.203125 -3.828125 2.359375 -3.765625 C 2.523438 -3.710938 2.753906 -3.644531 3.046875 -3.5625 C 3.453125 -3.445312 3.789062 -3.328125 4.0625 -3.203125 C 4.332031 -3.085938 4.5625 -2.90625 4.75 -2.65625 C 4.9375 -2.414062 5.03125 -2.09375 5.03125 -1.6875 C 5.03125 -1.320312 4.921875 -1 4.703125 -0.71875 C 4.484375 -0.445312 4.203125 -0.238281 3.859375 -0.09375 C 3.523438 0.0390625 3.175781 0.109375 2.8125 0.109375 C 2.3125 0.109375 1.847656 0.03125 1.421875 -0.125 C 0.992188 -0.289062 0.644531 -0.5625 0.375 -0.9375 Z M 0.375 -0.9375 "></path>
        </g>
      </g>
    </g>
    <g fill="#ffffff" fill-opacity="1">
      <g transform="translate(42.97668, 18.467492)">
        <g></g>
      </g>
    </g>
    <g fill="#ffffff" fill-opacity="1">
      <g transform="translate(46.509258, 18.467492)">
        <g>
          <path d="M 4.09375 -7.875 C 4.476562 -7.875 4.84375 -7.757812 5.1875 -7.53125 C 5.53125 -7.300781 5.804688 -6.992188 6.015625 -6.609375 C 6.222656 -6.222656 6.328125 -5.800781 6.328125 -5.34375 C 6.328125 -4.894531 6.222656 -4.472656 6.015625 -4.078125 C 5.804688 -3.691406 5.53125 -3.382812 5.1875 -3.15625 C 4.84375 -2.925781 4.476562 -2.8125 4.09375 -2.8125 L 2.140625 -2.8125 L 2.140625 -0.6875 C 2.140625 -0.476562 2.078125 -0.3125 1.953125 -0.1875 C 1.835938 -0.0625 1.679688 0 1.484375 0 C 1.296875 0 1.140625 -0.0625 1.015625 -0.1875 C 0.898438 -0.320312 0.84375 -0.488281 0.84375 -0.6875 L 0.84375 -7.1875 C 0.84375 -7.382812 0.90625 -7.546875 1.03125 -7.671875 C 1.164062 -7.804688 1.332031 -7.875 1.53125 -7.875 Z M 4.09375 -4.09375 C 4.238281 -4.09375 4.378906 -4.148438 4.515625 -4.265625 C 4.648438 -4.390625 4.757812 -4.546875 4.84375 -4.734375 C 4.9375 -4.929688 4.984375 -5.132812 4.984375 -5.34375 C 4.984375 -5.550781 4.9375 -5.75 4.84375 -5.9375 C 4.757812 -6.132812 4.648438 -6.289062 4.515625 -6.40625 C 4.378906 -6.519531 4.238281 -6.578125 4.09375 -6.578125 L 2.140625 -6.578125 L 2.140625 -4.09375 Z M 4.09375 -4.09375 "></path>
        </g>
      </g>
    </g>
    <g fill="#ffffff" fill-opacity="1">
      <g transform="translate(53.675597, 18.467492)">
        <g>
          <path d="M 5.203125 -6.015625 C 5.390625 -6.015625 5.546875 -5.945312 5.671875 -5.8125 C 5.804688 -5.6875 5.875 -5.523438 5.875 -5.328125 L 5.875 -2.46875 C 5.875 -1.664062 5.648438 -1.035156 5.203125 -0.578125 C 4.753906 -0.117188 4.117188 0.109375 3.296875 0.109375 C 2.472656 0.109375 1.835938 -0.117188 1.390625 -0.578125 C 0.953125 -1.035156 0.734375 -1.664062 0.734375 -2.46875 L 0.734375 -5.328125 C 0.734375 -5.523438 0.796875 -5.6875 0.921875 -5.8125 C 1.046875 -5.945312 1.207031 -6.015625 1.40625 -6.015625 C 1.601562 -6.015625 1.765625 -5.945312 1.890625 -5.8125 C 2.015625 -5.6875 2.078125 -5.523438 2.078125 -5.328125 L 2.078125 -2.46875 C 2.078125 -2.007812 2.175781 -1.671875 2.375 -1.453125 C 2.582031 -1.234375 2.890625 -1.125 3.296875 -1.125 C 3.710938 -1.125 4.019531 -1.234375 4.21875 -1.453125 C 4.414062 -1.671875 4.515625 -2.007812 4.515625 -2.46875 L 4.515625 -5.328125 C 4.515625 -5.523438 4.578125 -5.6875 4.703125 -5.8125 C 4.835938 -5.945312 5.003906 -6.015625 5.203125 -6.015625 Z M 5.203125 -6.015625 "></path>
        </g>
      </g>
    </g>
    <g fill="#ffffff" fill-opacity="1">
      <g transform="translate(60.661935, 18.467492)">
        <g>
          <path d="M 3.84375 -6.125 C 4.363281 -6.125 4.832031 -5.988281 5.25 -5.71875 C 5.675781 -5.457031 6.007812 -5.09375 6.25 -4.625 C 6.488281 -4.15625 6.609375 -3.617188 6.609375 -3.015625 C 6.609375 -2.410156 6.488281 -1.867188 6.25 -1.390625 C 6.007812 -0.921875 5.679688 -0.550781 5.265625 -0.28125 C 4.847656 -0.0195312 4.390625 0.109375 3.890625 0.109375 C 3.535156 0.109375 3.195312 0.0351562 2.875 -0.109375 C 2.550781 -0.253906 2.285156 -0.429688 2.078125 -0.640625 L 2.078125 1.5625 C 2.078125 1.757812 2.015625 1.921875 1.890625 2.046875 C 1.765625 2.179688 1.601562 2.25 1.40625 2.25 C 1.207031 2.25 1.046875 2.1875 0.921875 2.0625 C 0.796875 1.9375 0.734375 1.769531 0.734375 1.5625 L 0.734375 -5.328125 C 0.734375 -5.523438 0.796875 -5.6875 0.921875 -5.8125 C 1.046875 -5.945312 1.207031 -6.015625 1.40625 -6.015625 C 1.601562 -6.015625 1.765625 -5.945312 1.890625 -5.8125 C 2.015625 -5.6875 2.078125 -5.523438 2.078125 -5.328125 L 2.078125 -5.28125 C 2.253906 -5.507812 2.503906 -5.707031 2.828125 -5.875 C 3.148438 -6.039062 3.488281 -6.125 3.84375 -6.125 Z M 3.671875 -1.125 C 4.160156 -1.125 4.554688 -1.300781 4.859375 -1.65625 C 5.171875 -2.019531 5.328125 -2.472656 5.328125 -3.015625 C 5.328125 -3.554688 5.171875 -4.003906 4.859375 -4.359375 C 4.554688 -4.710938 4.160156 -4.890625 3.671875 -4.890625 C 3.191406 -4.890625 2.796875 -4.710938 2.484375 -4.359375 C 2.179688 -4.003906 2.03125 -3.554688 2.03125 -3.015625 C 2.03125 -2.472656 2.179688 -2.019531 2.484375 -1.65625 C 2.796875 -1.300781 3.191406 -1.125 3.671875 -1.125 Z M 3.671875 -1.125 "></path>
        </g>
      </g>
    </g>
    <g clip-path="url(#6e37781436)">
      <g fill="#ffffff" fill-opacity="1">
        <g transform="translate(68.053273, 18.467492)">
          <g>
            <path d="M 0.375 -0.9375 C 0.3125 -1.019531 0.28125 -1.128906 0.28125 -1.265625 C 0.28125 -1.460938 0.378906 -1.628906 0.578125 -1.765625 C 0.679688 -1.835938 0.789062 -1.875 0.90625 -1.875 C 1.0625 -1.875 1.207031 -1.800781 1.34375 -1.65625 C 1.570312 -1.425781 1.804688 -1.253906 2.046875 -1.140625 C 2.296875 -1.023438 2.59375 -0.96875 2.9375 -0.96875 C 3.519531 -0.988281 3.8125 -1.207031 3.8125 -1.625 C 3.8125 -1.84375 3.710938 -2.007812 3.515625 -2.125 C 3.316406 -2.238281 3.007812 -2.351562 2.59375 -2.46875 C 2.15625 -2.582031 1.796875 -2.695312 1.515625 -2.8125 C 1.242188 -2.9375 1.007812 -3.117188 0.8125 -3.359375 C 0.613281 -3.609375 0.515625 -3.941406 0.515625 -4.359375 C 0.515625 -4.710938 0.617188 -5.019531 0.828125 -5.28125 C 1.035156 -5.550781 1.304688 -5.757812 1.640625 -5.90625 C 1.972656 -6.050781 2.328125 -6.125 2.703125 -6.125 C 3.085938 -6.125 3.46875 -6.050781 3.84375 -5.90625 C 4.226562 -5.769531 4.53125 -5.5625 4.75 -5.28125 C 4.84375 -5.164062 4.890625 -5.03125 4.890625 -4.875 C 4.890625 -4.707031 4.820312 -4.566406 4.6875 -4.453125 C 4.570312 -4.367188 4.445312 -4.328125 4.3125 -4.328125 C 4.15625 -4.328125 4.023438 -4.378906 3.921875 -4.484375 C 3.785156 -4.648438 3.609375 -4.78125 3.390625 -4.875 C 3.179688 -4.976562 2.941406 -5.03125 2.671875 -5.03125 C 2.097656 -5.03125 1.8125 -4.820312 1.8125 -4.40625 C 1.8125 -4.238281 1.863281 -4.101562 1.96875 -4 C 2.070312 -3.90625 2.203125 -3.828125 2.359375 -3.765625 C 2.523438 -3.710938 2.753906 -3.644531 3.046875 -3.5625 C 3.453125 -3.445312 3.789062 -3.328125 4.0625 -3.203125 C 4.332031 -3.085938 4.5625 -2.90625 4.75 -2.65625 C 4.9375 -2.414062 5.03125 -2.09375 5.03125 -1.6875 C 5.03125 -1.320312 4.921875 -1 4.703125 -0.71875 C 4.484375 -0.445312 4.203125 -0.238281 3.859375 -0.09375 C 3.523438 0.0390625 3.175781 0.109375 2.8125 0.109375 C 2.3125 0.109375 1.847656 0.03125 1.421875 -0.125 C 0.992188 -0.289062 0.644531 -0.5625 0.375 -0.9375 Z M 0.375 -0.9375 "></path>
          </g>
        </g>
      </g>
    </g>
    <g clip-path="url(#3a7d0a0faf)">
      <path fill="#ffffff" d="M 13 18.53125 C 11.246094 18.53125 9.820312 17.105469 9.820312 15.351562 C 9.820312 13.597656 11.246094 12.171875 13 12.171875 C 14.753906 12.171875 16.179688 13.597656 16.179688 15.351562 C 16.179688 17.105469 14.753906 18.53125 13 18.53125 Z M 13 11.722656 C 10.996094 11.722656 9.371094 13.351562 9.371094 15.351562 C 9.371094 17.351562 10.996094 18.980469 13 18.980469 C 15 18.980469 16.628906 17.351562 16.628906 15.351562 C 16.628906 13.351562 15 11.722656 13 11.722656 " fill-opacity="1" fill-rule="nonzero"></path>
    </g>
    <path fill="#ffffff" d="M 12.59375 14.503906 C 12.621094 14.515625 12.652344 14.527344 12.6875 14.53125 C 13.007812 14.597656 13.363281 14.300781 13.476562 13.863281 C 13.578125 13.472656 13.449219 13.105469 13.1875 12.984375 C 13.160156 12.972656 13.128906 12.960938 13.09375 12.957031 C 12.773438 12.890625 12.417969 13.1875 12.304688 13.625 C 12.203125 14.015625 12.332031 14.382812 12.59375 14.503906 " fill-opacity="1" fill-rule="nonzero"></path>
    <path fill="#ffffff" d="M 14.761719 14.738281 C 15.015625 14.367188 15.007812 13.902344 14.746094 13.703125 C 14.71875 13.683594 14.691406 13.667969 14.664062 13.652344 C 14.402344 13.535156 14.039062 13.683594 13.8125 14.015625 C 13.558594 14.386719 13.566406 14.851562 13.828125 15.050781 C 13.855469 15.070312 13.882812 15.089844 13.914062 15.101562 C 14.175781 15.21875 14.535156 15.074219 14.761719 14.738281 " fill-opacity="1" fill-rule="nonzero"></path>
    <path fill="#ffffff" d="M 11.285156 14.984375 C 11.363281 15.019531 11.445312 15.035156 11.53125 15.023438 C 11.839844 14.988281 12.066406 14.652344 12.035156 14.269531 C 12.011719 13.996094 11.863281 13.777344 11.667969 13.6875 C 11.59375 13.652344 11.507812 13.636719 11.421875 13.648438 C 11.113281 13.683594 10.890625 14.019531 10.921875 14.402344 C 10.941406 14.675781 11.089844 14.894531 11.285156 14.984375 " fill-opacity="1" fill-rule="nonzero"></path>
    <path fill="#ffffff" d="M 15.320312 15.414062 C 15.269531 15.34375 15.203125 15.289062 15.128906 15.253906 C 14.929688 15.167969 14.667969 15.199219 14.445312 15.363281 C 14.140625 15.59375 14.035156 15.984375 14.210938 16.238281 C 14.261719 16.308594 14.328125 16.363281 14.402344 16.398438 C 14.601562 16.488281 14.863281 16.453125 15.082031 16.289062 C 15.390625 16.0625 15.496094 15.671875 15.320312 15.414062 " fill-opacity="1" fill-rule="nonzero"></path>
    <path fill="#ffffff" d="M 13.878906 16.40625 C 13.84375 16.320312 13.808594 16.230469 13.789062 16.140625 C 13.761719 16.042969 13.746094 15.941406 13.730469 15.855469 L 13.722656 15.789062 C 13.710938 15.71875 13.699219 15.65625 13.691406 15.589844 C 13.671875 15.488281 13.652344 15.40625 13.621094 15.332031 C 13.570312 15.207031 13.492188 15.101562 13.386719 15.019531 C 13.316406 14.964844 13.238281 14.921875 13.164062 14.886719 C 13.089844 14.855469 13.011719 14.835938 12.933594 14.835938 C 12.835938 14.832031 12.742188 14.851562 12.632812 14.890625 C 12.570312 14.914062 12.496094 14.945312 12.421875 14.984375 C 12.34375 15.023438 12.273438 15.066406 12.203125 15.109375 L 12.160156 15.136719 C 12.070312 15.1875 11.972656 15.25 11.871094 15.292969 C 11.785156 15.335938 11.707031 15.363281 11.632812 15.386719 C 11.539062 15.414062 11.441406 15.453125 11.359375 15.5 C 11.238281 15.566406 11.128906 15.648438 11.042969 15.742188 C 10.984375 15.808594 10.933594 15.878906 10.894531 15.953125 C 10.859375 16.015625 10.832031 16.089844 10.816406 16.160156 C 10.773438 16.351562 10.800781 16.539062 10.902344 16.710938 C 10.960938 16.8125 11.039062 16.890625 11.144531 16.953125 C 11.15625 16.964844 11.164062 16.96875 11.179688 16.972656 L 11.1875 16.976562 C 11.195312 16.980469 11.199219 16.984375 11.207031 16.988281 L 11.226562 16.996094 C 11.230469 16.996094 11.238281 17 11.242188 17.003906 L 11.25 17.007812 C 11.292969 17.027344 11.339844 17.039062 11.375 17.050781 C 11.480469 17.074219 11.585938 17.09375 11.683594 17.109375 L 11.6875 17.113281 C 11.777344 17.128906 11.871094 17.140625 11.957031 17.164062 C 11.992188 17.175781 12.039062 17.183594 12.082031 17.203125 C 12.140625 17.230469 12.191406 17.253906 12.238281 17.28125 C 12.300781 17.320312 12.371094 17.371094 12.445312 17.425781 C 12.476562 17.453125 12.515625 17.488281 12.546875 17.511719 C 12.59375 17.550781 12.644531 17.59375 12.695312 17.632812 C 12.746094 17.671875 12.800781 17.714844 12.867188 17.746094 L 12.984375 17.796875 C 12.992188 17.800781 13 17.800781 13.015625 17.789062 C 13.046875 17.800781 13.082031 17.8125 13.113281 17.816406 C 13.199219 17.832031 13.289062 17.832031 13.386719 17.8125 C 13.511719 17.789062 13.628906 17.738281 13.71875 17.660156 C 13.824219 17.574219 13.898438 17.46875 13.953125 17.339844 C 13.980469 17.265625 14.003906 17.175781 14.007812 17.085938 C 14.019531 16.984375 14.015625 16.878906 13.996094 16.761719 C 13.972656 16.644531 13.9375 16.523438 13.878906 16.40625 " fill-opacity="1" fill-rule="nonzero"></path>
  </symbol>
  <symbol xmlns="http://www.w3.org/2000/svg" viewBox="0 0 50 50" id="size">
    <path d="M 31.9375 1 C 31.84375 1.003906 31.777344 1.03125 31.6875 1.0625 C 31.328125 1.1875 31.046875 1.496094 31 1.875 L 29.1875 16.40625 L 41 22.375 L 41 18 L 46 18 C 46.398438 18 46.75 17.773438 46.90625 17.40625 L 49.90625 10.40625 C 50.011719 10.160156 50.039063 9.875 49.9375 9.625 C 49.835938 9.375 49.625 9.164063 49.375 9.0625 L 39.375 5.0625 C 39.257813 5.015625 39.128906 5 39 5 L 36.40625 5 L 32.71875 1.28125 C 32.515625 1.078125 32.214844 0.984375 31.9375 1 Z M 39.5 9 C 40.328125 9 41 9.671875 41 10.5 C 41 11.328125 40.328125 12 39.5 12 C 38.671875 12 38 11.328125 38 10.5 C 38 9.671875 38.671875 9 39.5 9 Z M 2.90625 12.9375 C 2.398438 12.9375 1.898438 13.082031 1.53125 13.3125 C 0.609375 13.808594 -0.0078125 14.667969 -0.125 15.65625 C -0.238281 16.597656 0.128906 17.511719 0.8125 18.125 L 4 21.21875 L 4 43.90625 C 4 45.644531 5.097656 47.210938 6.71875 47.75 C 7.121094 47.863281 7.53125 47.9375 7.9375 47.9375 C 10.175781 47.9375 12 46.167969 12 44 L 12 33 L 31 33 L 31 43.90625 C 31 45.644531 32.097656 47.210938 33.71875 47.75 C 34.121094 47.863281 34.53125 47.9375 34.9375 47.9375 C 36.015625 47.9375 37.046875 47.519531 37.8125 46.78125 C 38.585938 46.039063 39 45.054688 39 44 L 39 32.1875 L 40.9375 27.375 C 40.984375 27.257813 41 27.128906 41 27 L 41 24.59375 L 25.90625 17 L 8.21875 17 L 5.09375 13.90625 C 4.492188 13.304688 3.714844 12.9375 2.90625 12.9375 Z M 14 35 L 14 41.78125 L 16.46875 45.9375 C 17.265625 47.191406 18.59375 47.96875 19.9375 47.96875 C 20.214844 47.96875 20.464844 47.9375 20.71875 47.875 C 22.019531 47.566406 23.082031 46.703125 23.59375 45.5 C 24.09375 44.328125 24.011719 42.988281 23.375 41.90625 L 19.3125 35 Z"></path>
  </symbol>
  <symbol xmlns="http://www.w3.org/2000/svg" fill="#8b5a2b" viewBox="0 0 30 30" id="tiktok">
    <path d="M24,4H6C4.895,4,4,4.895,4,6v18c0,1.105,0.895,2,2,2h18c1.105,0,2-0.895,2-2V6C26,4.895,25.104,4,24,4z M22.689,13.474 c-0.13,0.012-0.261,0.02-0.393,0.02c-1.495,0-2.809-0.768-3.574-1.931c0,3.049,0,6.519,0,6.577c0,2.685-2.177,4.861-4.861,4.861 C11.177,23,9,20.823,9,18.139c0-2.685,2.177-4.861,4.861-4.861c0.102,0,0.201,0.009,0.3,0.015v2.396c-0.1-0.012-0.197-0.03-0.3-0.03 c-1.37,0-2.481,1.111-2.481,2.481s1.11,2.481,2.481,2.481c1.371,0,2.581-1.08,2.581-2.45c0-0.055,0.024-11.17,0.024-11.17h2.289 c0.215,2.047,1.868,3.663,3.934,3.811V13.474z"></path>
  </symbol>
</svg>